<?xml version="1.0" encoding="utf-8"?>
<!-- Generator: Adobe Illustrator 16.0.0, SVG Export Plug-In . SVG Version: 6.00 Build 0)  -->
<!DOCTYPE svg PUBLIC "-//W3C//DTD SVG 1.1//EN" "http://www.w3.org/Graphics/SVG/1.1/DTD/svg11.dtd">
<svg version="1.1" id="Layer_1" xmlns="http://www.w3.org/2000/svg" xmlns:xlink="http://www.w3.org/1999/xlink" x="0px" y="0px"
	 width="60px" height="60px" viewBox="0 0 60 60" enable-background="new 0 0 60 60" xml:space="preserve">
<g id="Layer_1_1_" display="none">
	<circle display="inline" fill="#E64C3B" cx="30" cy="30" r="30"/>
	<path display="inline" fill="#FFFFFF" d="M45.809,40.379l-15.186,6.284c-0.191,0.081-0.401,0.128-0.624,0.128
		c-0.221,0-0.432-0.047-0.623-0.128L14.19,40.379c-0.575-0.234-0.981-0.798-0.981-1.459V14.783c0-0.869,0.705-1.574,1.575-1.574
		c0.213,0,0.417,0.043,0.602,0.12l0,0l0.002,0.001c0.005,0.001,0.01,0.004,0.015,0.006L30,19.377l14.598-6.041
		c0.006-0.002,0.01-0.004,0.016-0.006l0.002-0.001l0,0c0.188-0.077,0.389-0.12,0.604-0.12c0.868,0,1.573,0.705,1.573,1.574V38.92
		C46.791,39.581,46.384,40.145,45.809,40.379z M28.426,22.133l-12.069-4.995v20.73l12.069,4.993V22.133z M43.643,17.138
		l-12.067,4.995v20.729l12.067-4.993V17.138z M34.068,24.369l5.775-2.623l0,0c0.196-0.091,0.418-0.141,0.649-0.141
		c0.868,0,1.573,0.704,1.573,1.573c0,0.637-0.379,1.187-0.922,1.433v0.001l-5.771,2.624l0,0c-0.199,0.089-0.42,0.141-0.652,0.141
		c-0.869,0-1.574-0.705-1.574-1.574C33.148,25.165,33.525,24.617,34.068,24.369z M34.068,30.142L34.068,30.142l5.775-2.624l0,0
		c0.196-0.091,0.418-0.141,0.649-0.141c0.868,0,1.573,0.705,1.573,1.573c0,0.638-0.379,1.186-0.922,1.434l-5.771,2.624l0,0
		c-0.199,0.09-0.42,0.141-0.652,0.141c-0.869,0-1.574-0.705-1.574-1.573C33.148,30.938,33.525,30.389,34.068,30.142z M34.068,35.914
		v-0.002l5.775-2.623l0,0c0.196-0.09,0.418-0.141,0.649-0.141c0.868,0,1.573,0.705,1.573,1.576c0,0.635-0.379,1.183-0.922,1.432l0,0
		l-5.771,2.623l0,0c-0.199,0.09-0.42,0.141-0.652,0.141c-0.869,0-1.574-0.703-1.574-1.574
		C33.148,36.709,33.525,36.162,34.068,35.914z M19.506,21.605c0.232,0,0.453,0.05,0.651,0.141l0,0l5.771,2.623l0,0
		c0.544,0.248,0.923,0.796,0.923,1.434c0,0.869-0.705,1.574-1.574,1.574c-0.233,0-0.453-0.052-0.652-0.141l0,0l-5.771-2.624v-0.001
		c-0.544-0.247-0.923-0.796-0.923-1.433C17.932,22.31,18.636,21.605,19.506,21.605z M19.506,27.377c0.232,0,0.453,0.05,0.651,0.141
		l0,0l5.771,2.624l0,0c0.544,0.247,0.923,0.795,0.923,1.433c0,0.868-0.705,1.573-1.574,1.573c-0.233,0-0.453-0.051-0.652-0.141l0,0
		l-5.771-2.624l0,0c-0.544-0.248-0.923-0.796-0.923-1.434C17.932,28.082,18.636,27.377,19.506,27.377z M19.506,33.148
		c0.232,0,0.453,0.051,0.651,0.141l0,0l5.771,2.623v0.002c0.544,0.248,0.923,0.795,0.923,1.432c0,0.871-0.705,1.574-1.574,1.574
		c-0.233,0-0.453-0.051-0.652-0.141l0,0l-5.771-2.623l0,0c-0.544-0.249-0.923-0.797-0.923-1.432
		C17.932,33.854,18.636,33.148,19.506,33.148z"/>
</g>
<g id="Layer_2" display="none">
	<circle display="inline" fill="#23AE5F" cx="30" cy="30" r="30"/>
	<path display="inline" fill="#FFFFFF" d="M46.232,31.679h-4.478l0,0c-0.929,0-1.681-0.751-1.681-1.679s0.752-1.68,1.681-1.68l0,0
		h4.478c0.928,0,1.68,0.752,1.68,1.68S47.16,31.679,46.232,31.679z M43.502,18.873l-3.048,3.047l-0.87,0.871l0,0l-0.005-0.005
		c-0.302,0.306-0.718,0.496-1.183,0.496c-0.93,0-1.681-0.751-1.681-1.679c0-0.465,0.19-0.881,0.497-1.183l-0.005-0.005l0,0
		l0.87-0.871l3.048-3.047l0,0c0.306-0.304,0.724-0.492,1.188-0.492c0.928,0,1.68,0.752,1.68,1.68
		C43.994,18.148,43.807,18.569,43.502,18.873L43.502,18.873z M30,36.718c-2.506,0-4.687-1.376-5.842-3.409l-0.661-1.656
		c-0.135-0.528-0.214-1.08-0.214-1.651c0-3.71,3.007-6.718,6.717-6.718c3.709,0,6.717,3.008,6.717,6.718
		C36.717,33.709,33.709,36.718,30,36.718z M30,26.642c-1.854,0-3.358,1.504-3.358,3.358c0,1.854,1.504,3.359,3.358,3.359
		c1.854,0,3.359-1.506,3.359-3.359C33.359,28.146,31.854,26.642,30,26.642z M30,19.924c-0.928,0-1.68-0.751-1.68-1.679l0,0v-4.479
		c0-0.927,0.752-1.679,1.68-1.679c0.928,0,1.68,0.752,1.68,1.679v4.479l0,0C31.68,19.173,30.928,19.924,30,19.924z M22.791,39.583
		L22.791,39.583l-0.871,0.872l-3.048,3.047l0,0c-0.304,0.305-0.724,0.492-1.187,0.492c-0.928,0-1.68-0.752-1.68-1.68
		c0-0.465,0.188-0.883,0.492-1.188l0,0l3.047-3.047l0.871-0.871l0,0l0,0c0.304-0.304,0.724-0.491,1.188-0.491
		c0.928,0,1.68,0.751,1.68,1.68C23.283,38.859,23.095,39.279,22.791,39.583L22.791,39.583z M21.604,23.282
		c-0.465,0-0.881-0.19-1.183-0.496l-0.005,0.005l0,0l-0.871-0.871l-3.047-3.047l0,0c-0.304-0.304-0.492-0.725-0.492-1.188
		c0-0.928,0.752-1.68,1.68-1.68c0.463,0,0.883,0.188,1.187,0.492l0,0l3.048,3.047l0.871,0.871l0,0l-0.005,0.005
		c0.306,0.302,0.497,0.718,0.497,1.183C23.283,22.531,22.531,23.282,21.604,23.282z M18.245,28.32c0.928,0,1.679,0.752,1.679,1.68
		s-0.751,1.679-1.679,1.679l0,0h-4.479c-0.928,0-1.679-0.751-1.679-1.679s0.751-1.68,1.679-1.68H18.245L18.245,28.32z M30,40.075
		c0.928,0,1.68,0.751,1.68,1.681l0,0v4.479c0,0.927-0.752,1.679-1.68,1.679c-0.928,0-1.68-0.752-1.68-1.679v-4.479l0,0
		C28.32,40.826,29.072,40.075,30,40.075z M38.396,36.718c0.463,0,0.883,0.188,1.188,0.491l0,0l0,0l0,0l0.87,0.871l3.048,3.047l0,0
		c0.305,0.305,0.492,0.725,0.492,1.188c0,0.929-0.752,1.681-1.68,1.681c-0.465,0-0.883-0.188-1.188-0.492l0,0l-3.048-3.047
		l-0.87-0.872l0,0l0,0l0,0c-0.304-0.304-0.492-0.725-0.492-1.188C36.717,37.469,37.469,36.718,38.396,36.718z"/>
</g>
<g id="Layer_2_copy" display="none">
	<circle display="inline" fill="#3A97D3" cx="30" cy="30" r="30"/>
	<path display="inline" fill="#FFFFFF" d="M46.232,46.232h-2.799V32.799V22.163h2.799c0.928,0,1.68,0.752,1.68,1.68v10.636v6.718
		v3.357C47.912,45.48,47.16,46.232,46.232,46.232z M18.245,46.232V32.799v-0.56V22.163h3.358c0-4.637,3.76-8.396,8.396-8.396
		c4.636,0,8.396,3.76,8.396,8.396h3.359v10.636v13.436H18.245V46.232z M30,17.125c-2.782,0-5.038,2.255-5.038,5.038h10.076
		C35.038,19.381,32.781,17.125,30,17.125z M12.088,44.554v-3.357v-6.718V23.843c0-0.928,0.751-1.68,1.68-1.68h2.798v10.076v0.56
		v13.436h-2.798C12.839,46.232,12.088,45.48,12.088,44.554z"/>
</g>
<g id="Layer_2_copy_2">
	<circle fill="#CA222B" cx="30" cy="30" r="30"/>
</g>
<path fill-rule="evenodd" clip-rule="evenodd" fill="#FFFFFF" d="M30.821,5.429c0.145,0.04,0.288,0.109,0.434,0.116
	c2.936,0.126,5.744,0.792,8.446,1.935c3.33,1.409,6.185,3.484,8.615,6.144c2.053,2.244,3.604,4.806,4.712,7.638
	c0.746,1.908,1.279,3.884,1.453,5.916c0.145,1.694,0.108,3.412,0.032,5.114c-0.103,2.332-0.713,4.567-1.572,6.732
	c-0.896,2.261-2.097,4.347-3.622,6.247c-1.989,2.479-4.347,4.525-7.107,6.097c-2.344,1.334-4.836,2.299-7.496,2.749
	c-1.463,0.247-2.954,0.414-4.437,0.448c-2.447,0.058-4.852-0.3-7.209-1c-3.291-0.978-6.25-2.564-8.869-4.771
	c-3.007-2.533-5.27-5.621-6.821-9.243c-0.86-2.01-1.381-4.104-1.726-6.249c-0.075-0.467-0.073-0.946-0.12-1.42
	c-0.016-0.155-0.075-0.306-0.114-0.459c0-0.922,0-1.844,0-2.767c0.039-0.103,0.099-0.203,0.113-0.31
	c0.137-1.018,0.214-2.047,0.406-3.054c0.876-4.593,2.97-8.579,6.144-11.99c2.463-2.646,5.391-4.645,8.747-5.998
	c2.59-1.044,5.279-1.655,8.077-1.76c0.113-0.004,0.222-0.075,0.334-0.115C29.767,5.429,30.294,5.429,30.821,5.429z M32.229,50.816
	c-3.769-1.191-6.706-3.448-8.639-6.892c-1.941-3.458-2.371-7.151-1.286-10.967c1.574-5.538,6.537-10.379,13.426-10.422
	c8.005-0.051,12.801,4.341,14.841,11.895c1.646-6.267-0.229-15.699-8.302-21.463c-7.758-5.54-18.467-5.349-26.089,1.316
	c-7.16,6.261-9.271,16.377-5,25.018C15.515,48.072,24.683,51.873,32.229,50.816z M25.323,36.885
	c-0.016,5.96,4.727,10.566,10.199,10.865c6.566,0.359,11.554-4.73,11.593-10.77c0.04-6.114-4.871-10.862-10.81-10.933
	C30.304,25.976,25.293,30.912,25.323,36.885z"/>
</svg>
