<?xml version="1.0" encoding="utf-8"?>
<!-- Generator: Adobe Illustrator 16.0.0, SVG Export Plug-In . SVG Version: 6.00 Build 0)  -->
<!DOCTYPE svg PUBLIC "-//W3C//DTD SVG 1.1//EN" "http://www.w3.org/Graphics/SVG/1.1/DTD/svg11.dtd">
<svg version="1.1" id="Layer_1" xmlns="http://www.w3.org/2000/svg" xmlns:xlink="http://www.w3.org/1999/xlink" x="0px" y="0px"
	 width="60px" height="60px" viewBox="0 0 60 60" enable-background="new 0 0 60 60" xml:space="preserve">
<g id="Layer_1_1_" display="none">
	<circle display="inline" fill="#E64C3B" cx="30" cy="30" r="30"/>
	<path display="inline" fill="#FFFFFF" d="M45.809,40.379l-15.186,6.284c-0.191,0.081-0.401,0.128-0.624,0.128
		c-0.221,0-0.432-0.047-0.623-0.128L14.19,40.379c-0.575-0.234-0.981-0.798-0.981-1.459V14.783c0-0.869,0.705-1.574,1.575-1.574
		c0.213,0,0.417,0.043,0.602,0.12l0,0l0.002,0.001c0.005,0.001,0.01,0.004,0.015,0.006L30,19.377l14.598-6.041
		c0.006-0.002,0.01-0.004,0.016-0.006l0.002-0.001l0,0c0.189-0.077,0.39-0.12,0.605-0.12c0.867,0,1.572,0.705,1.572,1.574V38.92
		C46.791,39.581,46.384,40.145,45.809,40.379z M28.426,22.133l-12.069-4.995v20.73l12.069,4.993V22.133z M43.643,17.138
		l-12.066,4.995v20.729l12.066-4.993V17.138z M34.068,24.369l5.775-2.623l0,0c0.195-0.091,0.418-0.141,0.648-0.141
		c0.867,0,1.572,0.704,1.572,1.573c0,0.637-0.379,1.188-0.922,1.433v0.001l-5.771,2.624l0,0c-0.199,0.089-0.42,0.141-0.651,0.141
		c-0.869,0-1.574-0.705-1.574-1.574C33.148,25.165,33.525,24.617,34.068,24.369z M34.068,30.142L34.068,30.142l5.775-2.624l0,0
		c0.195-0.091,0.418-0.141,0.648-0.141c0.867,0,1.572,0.705,1.572,1.573c0,0.638-0.379,1.186-0.922,1.434l-5.771,2.624l0,0
		c-0.199,0.09-0.42,0.141-0.651,0.141c-0.869,0-1.574-0.705-1.574-1.572C33.148,30.938,33.525,30.389,34.068,30.142z M34.068,35.914
		v-0.002l5.775-2.623l0,0c0.195-0.09,0.418-0.141,0.648-0.141c0.867,0,1.572,0.705,1.572,1.576c0,0.635-0.379,1.183-0.922,1.432l0,0
		l-5.771,2.623l0,0c-0.199,0.09-0.42,0.141-0.651,0.141c-0.869,0-1.574-0.703-1.574-1.574
		C33.148,36.709,33.525,36.162,34.068,35.914z M19.506,21.605c0.232,0,0.453,0.05,0.651,0.141l0,0l5.771,2.623l0,0
		c0.544,0.248,0.923,0.796,0.923,1.434c0,0.869-0.705,1.574-1.574,1.574c-0.233,0-0.453-0.052-0.652-0.141l0,0l-5.771-2.624v-0.001
		c-0.544-0.247-0.923-0.796-0.923-1.433C17.932,22.31,18.636,21.605,19.506,21.605z M19.506,27.377c0.232,0,0.453,0.05,0.651,0.141
		l0,0l5.771,2.624l0,0c0.544,0.247,0.923,0.795,0.923,1.433c0,0.868-0.705,1.573-1.574,1.573c-0.233,0-0.453-0.051-0.652-0.142l0,0
		l-5.771-2.624l0,0c-0.544-0.248-0.923-0.796-0.923-1.434C17.932,28.082,18.636,27.377,19.506,27.377z M19.506,33.148
		c0.232,0,0.453,0.051,0.651,0.141l0,0l5.771,2.623v0.002c0.544,0.248,0.923,0.795,0.923,1.432c0,0.871-0.705,1.574-1.574,1.574
		c-0.233,0-0.453-0.051-0.652-0.141l0,0l-5.771-2.623l0,0c-0.544-0.249-0.923-0.797-0.923-1.432
		C17.932,33.854,18.636,33.148,19.506,33.148z"/>
</g>
<g id="Layer_2" display="none">
	<circle display="inline" fill="#23AE5F" cx="30" cy="30" r="30"/>
	<path display="inline" fill="#FFFFFF" d="M46.232,31.679h-4.479l0,0c-0.929,0-1.682-0.751-1.682-1.679s0.753-1.68,1.682-1.68l0,0
		h4.479c0.928,0,1.68,0.752,1.68,1.68S47.16,31.679,46.232,31.679z M43.502,18.873l-3.048,3.047l-0.87,0.871l0,0l-0.005-0.005
		c-0.302,0.306-0.718,0.496-1.183,0.496c-0.931,0-1.682-0.751-1.682-1.679c0-0.465,0.189-0.881,0.497-1.183l-0.005-0.005l0,0
		l0.87-0.871l3.048-3.047l0,0c0.307-0.304,0.725-0.492,1.188-0.492c0.929,0,1.681,0.752,1.681,1.68
		C43.994,18.148,43.807,18.569,43.502,18.873L43.502,18.873z M30,36.718c-2.506,0-4.687-1.376-5.842-3.409l-0.661-1.656
		c-0.135-0.527-0.214-1.079-0.214-1.65c0-3.71,3.007-6.718,6.717-6.718c3.709,0,6.717,3.008,6.717,6.718
		C36.717,33.709,33.709,36.718,30,36.718z M30,26.642c-1.854,0-3.358,1.504-3.358,3.358c0,1.854,1.504,3.359,3.358,3.359
		c1.854,0,3.359-1.506,3.359-3.359C33.359,28.146,31.854,26.642,30,26.642z M30,19.924c-0.928,0-1.68-0.751-1.68-1.679l0,0v-4.479
		c0-0.927,0.752-1.679,1.68-1.679c0.928,0,1.68,0.752,1.68,1.679v4.479l0,0C31.68,19.173,30.928,19.924,30,19.924z M22.791,39.583
		L22.791,39.583l-0.871,0.872l-3.048,3.047l0,0c-0.304,0.305-0.724,0.492-1.187,0.492c-0.928,0-1.68-0.752-1.68-1.68
		c0-0.465,0.188-0.883,0.492-1.188l0,0l3.047-3.047l0.871-0.871l0,0l0,0c0.304-0.304,0.724-0.491,1.188-0.491
		c0.928,0,1.68,0.751,1.68,1.68C23.283,38.859,23.095,39.279,22.791,39.583L22.791,39.583z M21.604,23.282
		c-0.465,0-0.881-0.19-1.183-0.496l-0.005,0.005l0,0l-0.871-0.871l-3.047-3.047l0,0c-0.304-0.304-0.492-0.725-0.492-1.188
		c0-0.928,0.752-1.68,1.68-1.68c0.463,0,0.883,0.188,1.187,0.492l0,0l3.048,3.047l0.871,0.871l0,0l-0.005,0.005
		c0.306,0.302,0.497,0.718,0.497,1.183C23.283,22.531,22.531,23.282,21.604,23.282z M18.245,28.32c0.928,0,1.679,0.752,1.679,1.68
		s-0.751,1.679-1.679,1.679l0,0h-4.479c-0.928,0-1.679-0.751-1.679-1.679s0.751-1.68,1.679-1.68H18.245L18.245,28.32z M30,40.075
		c0.928,0,1.68,0.751,1.68,1.681l0,0v4.479c0,0.928-0.752,1.68-1.68,1.68c-0.928,0-1.68-0.752-1.68-1.68v-4.479l0,0
		C28.32,40.826,29.072,40.075,30,40.075z M38.396,36.718c0.463,0,0.883,0.188,1.188,0.491l0,0l0,0l0,0l0.87,0.871l3.048,3.047l0,0
		c0.305,0.305,0.492,0.725,0.492,1.188c0,0.93-0.752,1.682-1.68,1.682c-0.465,0-0.883-0.188-1.188-0.492l0,0l-3.048-3.047
		l-0.87-0.872l0,0l0,0l0,0c-0.304-0.304-0.492-0.726-0.492-1.188C36.717,37.469,37.469,36.718,38.396,36.718z"/>
</g>
<g id="Layer_2_copy" display="none">
	<circle display="inline" fill="#3A97D3" cx="30" cy="30" r="30"/>
	<path display="inline" fill="#FFFFFF" d="M46.232,46.232h-2.799V32.799V22.163h2.799c0.928,0,1.68,0.752,1.68,1.68v10.636v6.719
		v3.356C47.912,45.48,47.16,46.232,46.232,46.232z M18.245,46.232V32.799v-0.56V22.163h3.358c0-4.637,3.76-8.396,8.396-8.396
		c4.636,0,8.396,3.76,8.396,8.396h3.359v10.636v13.436H18.245V46.232z M30,17.125c-2.782,0-5.038,2.255-5.038,5.038h10.076
		C35.038,19.381,32.781,17.125,30,17.125z M12.088,44.554v-3.356v-6.719V23.843c0-0.928,0.751-1.68,1.68-1.68h2.798v10.076v0.56
		v13.436h-2.798C12.839,46.232,12.088,45.48,12.088,44.554z"/>
</g>
<g id="Layer_2_copy_2">
	<circle fill="#21928B" cx="30" cy="30" r="30"/>
	<g id="Layer_1_2_">
		<path fill="#FFFFFF" d="M52.497,30.678c-0.701-0.909-1.686-1.364-2.95-1.364c-0.662,0-1.303,0.116-1.919,0.346
			c-0.618,0.231-1.114,0.49-1.492,0.775c-0.377,0.285-0.787,0.542-1.227,0.773c-0.44,0.232-0.828,0.348-1.168,0.348
			c-0.693,0-1.38-0.354-2.059-1.062c-0.54-0.573-0.809-1.472-0.809-2.707c0-1.466,0.185-3.356,0.554-5.667
			c0.016-0.047,0.042-0.212,0.081-0.498c0.038-0.284,0.077-0.547,0.117-0.787c0.036-0.238,0.065-0.374,0.08-0.404v-0.046
			c-0.726,0.032-1.981,0.162-3.771,0.392c-1.789,0.231-3.177,0.349-4.163,0.349c-0.94,0-1.735-0.204-2.382-0.614
			c-0.648-0.409-0.973-1.053-0.973-1.931c0-0.571,0.135-1.119,0.405-1.643c0.269-0.524,0.562-0.959,0.88-1.307
			c0.315-0.346,0.608-0.802,0.879-1.366c0.27-0.563,0.404-1.16,0.404-1.792c0-1.218-0.416-2.17-1.25-2.857
			c-0.833-0.686-1.866-1.029-3.1-1.029c-1.311,0-2.421,0.351-3.332,1.053c-0.91,0.702-1.364,1.684-1.364,2.949
			c0,0.663,0.115,1.304,0.347,1.92s0.489,1.114,0.775,1.491c0.285,0.379,0.542,0.787,0.774,1.227
			c0.23,0.439,0.347,0.829,0.347,1.169c0,0.694-0.355,1.379-1.065,2.059c-0.57,0.54-1.471,0.811-2.707,0.811
			c-1.465,0-3.353-0.187-5.667-0.557c-0.046-0.015-0.212-0.042-0.497-0.08c-0.286-0.039-0.547-0.078-0.787-0.117
			c-0.24-0.04-0.373-0.065-0.404-0.081v23.686c0,0.016,0.016,0.023,0.047,0.023c0.031,0.013,0.055,0.021,0.069,0.021l0.3,0.048
			c0.139,0.031,0.35,0.062,0.635,0.092c0.287,0.031,0.498,0.062,0.637,0.091c2.314,0.371,4.201,0.558,5.667,0.558
			c1.234,0,2.136-0.271,2.707-0.811c0.71-0.677,1.065-1.364,1.065-2.058c0-0.34-0.116-0.728-0.347-1.169
			c-0.232-0.438-0.49-0.847-0.774-1.227c-0.286-0.377-0.544-0.875-0.775-1.49c-0.231-0.617-0.347-1.26-0.347-1.922
			c0-1.265,0.454-2.246,1.364-2.948c0.91-0.701,2.013-1.052,3.307-1.052c1.25,0,2.291,0.344,3.124,1.03
			c0.834,0.686,1.25,1.638,1.25,2.855c0,0.634-0.135,1.229-0.404,1.793c-0.271,0.563-0.564,1.02-0.879,1.365
			c-0.318,0.346-0.611,0.783-0.88,1.307c-0.271,0.524-0.405,1.071-0.405,1.642c0,0.879,0.324,1.521,0.973,1.931
			c0.646,0.409,1.441,0.613,2.383,0.613c0.709,0,1.465-0.039,2.268-0.115c0.801-0.079,1.692-0.184,2.67-0.313
			c0.981-0.132,1.732-0.22,2.256-0.267c0.17-0.015,0.426-0.021,0.765-0.021v-0.115c0.015-0.603-0.101-1.489-0.348-2.662
			c-0.248-1.17-0.37-2.058-0.37-2.66c0-1.912,0.848-2.867,2.546-2.867c0.568,0,1.117,0.134,1.639,0.404
			c0.526,0.271,0.962,0.564,1.31,0.88c0.346,0.315,0.799,0.607,1.364,0.878c0.562,0.271,1.158,0.407,1.791,0.407
			c1.217,0,2.172-0.417,2.857-1.249c0.687-0.835,1.03-1.873,1.03-3.123C53.55,32.69,53.198,31.587,52.497,30.678z"/>
	</g>
</g>
</svg>
