<?xml version="1.0" encoding="utf-8"?>
<!-- Generator: Adobe Illustrator 16.0.0, SVG Export Plug-In . SVG Version: 6.00 Build 0)  -->
<!DOCTYPE svg PUBLIC "-//W3C//DTD SVG 1.1//EN" "http://www.w3.org/Graphics/SVG/1.1/DTD/svg11.dtd">
<svg version="1.1" xmlns="http://www.w3.org/2000/svg" xmlns:xlink="http://www.w3.org/1999/xlink" x="0px" y="0px" width="60px"
	 height="60px" viewBox="0 0 60 60" enable-background="new 0 0 60 60" xml:space="preserve">
<g id="Layer_1" display="none">
	<circle display="inline" fill-rule="evenodd" clip-rule="evenodd" fill="#E64C3B" cx="30" cy="30" r="30"/>
	<path display="inline" fill-rule="evenodd" clip-rule="evenodd" fill="#FFFFFF" d="M45.809,40.379l-15.186,6.284
		c-0.191,0.081-0.401,0.128-0.624,0.128c-0.221,0-0.432-0.047-0.623-0.128L14.19,40.379c-0.575-0.234-0.981-0.798-0.981-1.459
		V14.783c0-0.869,0.705-1.574,1.575-1.574c0.213,0,0.417,0.043,0.602,0.12l0,0l0.002,0.001c0.005,0.001,0.01,0.004,0.015,0.006
		L30,19.377l14.598-6.041c0.006-0.002,0.01-0.004,0.015-0.006l0.003-0.001l0,0c0.186-0.077,0.388-0.12,0.602-0.12
		c0.869,0,1.574,0.705,1.574,1.574V38.92C46.791,39.581,46.384,40.145,45.809,40.379z M28.426,22.133l-12.069-4.995v20.73
		l12.069,4.993V22.133z M43.643,17.138l-12.068,4.995v20.729l12.068-4.993V17.138z M34.069,24.369l5.774-2.623l0,0
		c0.197-0.091,0.419-0.141,0.65-0.141c0.869,0,1.574,0.704,1.574,1.573c0,0.637-0.379,1.186-0.923,1.433v0.001l-5.771,2.624l0,0
		c-0.199,0.089-0.42,0.141-0.652,0.141c-0.869,0-1.574-0.705-1.574-1.574C33.148,25.165,33.526,24.617,34.069,24.369z
		 M34.069,30.142L34.069,30.142l5.774-2.624l0,0c0.197-0.091,0.419-0.141,0.65-0.141c0.869,0,1.574,0.705,1.574,1.573
		c0,0.638-0.379,1.186-0.923,1.434l-5.771,2.624l0,0c-0.199,0.09-0.42,0.141-0.652,0.141c-0.869,0-1.574-0.705-1.574-1.574
		C33.148,30.938,33.526,30.389,34.069,30.142z M34.069,35.914v-0.002l5.774-2.623l0,0c0.197-0.09,0.419-0.141,0.65-0.141
		c0.869,0,1.574,0.705,1.574,1.576c0,0.635-0.379,1.183-0.923,1.432l0,0l-5.771,2.623l0,0c-0.199,0.09-0.42,0.141-0.652,0.141
		c-0.869,0-1.574-0.703-1.574-1.574C33.148,36.709,33.526,36.162,34.069,35.914z M19.506,21.605c0.232,0,0.453,0.05,0.651,0.141l0,0
		l5.771,2.623l0,0c0.544,0.248,0.923,0.796,0.923,1.434c0,0.869-0.705,1.574-1.574,1.574c-0.233,0-0.453-0.052-0.652-0.141l0,0
		l-5.771-2.624v-0.001c-0.544-0.247-0.923-0.796-0.923-1.433C17.932,22.31,18.636,21.605,19.506,21.605z M19.506,27.377
		c0.232,0,0.453,0.05,0.651,0.141l0,0l5.771,2.624l0,0c0.544,0.247,0.923,0.796,0.923,1.433c0,0.869-0.705,1.574-1.574,1.574
		c-0.233,0-0.453-0.051-0.652-0.141l0,0l-5.771-2.624l0,0c-0.544-0.248-0.923-0.796-0.923-1.434
		C17.932,28.082,18.636,27.377,19.506,27.377z M19.506,33.148c0.232,0,0.453,0.051,0.651,0.141l0,0l5.771,2.623v0.002
		c0.544,0.248,0.923,0.795,0.923,1.432c0,0.871-0.705,1.574-1.574,1.574c-0.233,0-0.453-0.051-0.652-0.141l0,0l-5.771-2.623l0,0
		c-0.544-0.249-0.923-0.797-0.923-1.432C17.932,33.854,18.636,33.148,19.506,33.148z"/>
</g>
<g id="Layer_2" display="none">
	<circle display="inline" fill-rule="evenodd" clip-rule="evenodd" fill="#23AE5F" cx="30" cy="30" r="30"/>
	<path display="inline" fill-rule="evenodd" clip-rule="evenodd" fill="#FFFFFF" d="M46.233,31.679h-4.478l0,0
		c-0.929,0-1.681-0.751-1.681-1.679s0.752-1.68,1.681-1.68l0,0h4.478c0.927,0,1.679,0.752,1.679,1.68S47.16,31.679,46.233,31.679z
		 M43.502,18.873l-3.048,3.047l-0.87,0.871l0,0l-0.005-0.005c-0.302,0.306-0.718,0.496-1.183,0.496c-0.929,0-1.68-0.751-1.68-1.679
		c0-0.465,0.191-0.881,0.497-1.183l-0.005-0.005l0,0l0.87-0.871l3.048-3.047l0,0c0.305-0.304,0.724-0.492,1.188-0.492
		c0.928,0,1.68,0.752,1.68,1.68C43.994,18.148,43.807,18.569,43.502,18.873L43.502,18.873z M30,36.718
		c-2.506,0-4.687-1.376-5.842-3.41l-0.661-1.655c-0.135-0.529-0.214-1.081-0.214-1.652c0-3.71,3.007-6.718,6.717-6.718
		c3.709,0,6.717,3.008,6.717,6.718C36.717,33.709,33.709,36.718,30,36.718z M30,26.642c-1.854,0-3.358,1.504-3.358,3.358
		s1.504,3.359,3.358,3.359s3.359-1.505,3.359-3.359S31.854,26.642,30,26.642z M30,19.924c-0.928,0-1.68-0.751-1.68-1.679l0,0v-4.479
		c0-0.927,0.752-1.679,1.68-1.679s1.68,0.752,1.68,1.679v4.479l0,0C31.68,19.173,30.928,19.924,30,19.924z M22.791,39.583
		L22.791,39.583l-0.871,0.872l-3.048,3.047l0,0c-0.304,0.305-0.724,0.492-1.187,0.492c-0.928,0-1.68-0.752-1.68-1.68
		c0-0.464,0.188-0.883,0.492-1.188l0,0l3.047-3.047l0.871-0.871l0,0l0,0c0.304-0.304,0.724-0.491,1.188-0.491
		c0.928,0,1.68,0.751,1.68,1.679C23.283,38.859,23.095,39.279,22.791,39.583L22.791,39.583z M21.604,23.282
		c-0.465,0-0.881-0.19-1.183-0.496l-0.005,0.005l0,0l-0.871-0.871l-3.047-3.047l0,0c-0.304-0.304-0.492-0.725-0.492-1.188
		c0-0.928,0.752-1.68,1.68-1.68c0.463,0,0.883,0.188,1.187,0.492l0,0l3.048,3.047l0.871,0.871l0,0l-0.005,0.005
		c0.306,0.302,0.497,0.718,0.497,1.183C23.283,22.531,22.531,23.282,21.604,23.282z M18.245,28.32c0.928,0,1.679,0.752,1.679,1.68
		s-0.751,1.679-1.679,1.679l0,0h-4.479c-0.928,0-1.679-0.751-1.679-1.679s0.751-1.68,1.679-1.68H18.245L18.245,28.32z M30,40.075
		c0.928,0,1.68,0.751,1.68,1.681l0,0v4.478c0,0.927-0.752,1.679-1.68,1.679s-1.68-0.752-1.68-1.679v-4.478l0,0
		C28.32,40.826,29.072,40.075,30,40.075z M38.396,36.718c0.464,0,0.884,0.188,1.188,0.491l0,0l0,0l0,0l0.87,0.871l3.048,3.047l0,0
		c0.305,0.305,0.492,0.724,0.492,1.188c0,0.928-0.752,1.68-1.68,1.68c-0.464,0-0.883-0.188-1.188-0.492l0,0l-3.048-3.047
		l-0.87-0.872l0,0l0,0l0,0c-0.304-0.304-0.492-0.724-0.492-1.187C36.717,37.469,37.468,36.718,38.396,36.718z"/>
</g>
<g id="Layer_2_copy">
	<circle fill-rule="evenodd" clip-rule="evenodd" fill="#3A97D3" cx="30" cy="30" r="30"/>
	<path fill-rule="evenodd" clip-rule="evenodd" fill="#FFFFFF" d="M46.233,46.233h-2.8V32.799V22.163h2.8
		c0.927,0,1.679,0.752,1.679,1.68v10.636v6.717v3.358C47.912,45.481,47.16,46.233,46.233,46.233z M18.245,46.233V32.799v-0.56
		V22.163h3.358c0-4.637,3.76-8.396,8.396-8.396s8.396,3.76,8.396,8.396h3.359v10.636v13.435H18.245z M30,17.125
		c-2.782,0-5.038,2.255-5.038,5.038h10.076C35.038,19.381,32.782,17.125,30,17.125z M12.088,44.554v-3.358v-6.717V23.843
		c0-0.928,0.751-1.68,1.68-1.68h2.798v10.076v0.56v13.435h-2.798C12.839,46.233,12.088,45.481,12.088,44.554z"/>
</g>
<g id="Layer_2_copy_2" display="none">
	<circle display="inline" fill-rule="evenodd" clip-rule="evenodd" fill="#F29C1F" cx="30" cy="30" r="30"/>
	<path display="inline" fill-rule="evenodd" clip-rule="evenodd" fill="#FFFFFF" d="M45.092,46.653H14.908
		c-0.862,0-1.562-0.699-1.562-1.562V19.071c0-0.862,0.7-1.561,1.562-1.561h3.123v1.561c0,2.013,1.631,3.644,3.643,3.644
		c2.011,0,3.643-1.631,3.643-3.644V17.51h9.367v1.561c0,2.013,1.631,3.644,3.644,3.644c2.011,0,3.642-1.631,3.642-3.644V17.51h3.123
		c0.862,0,1.562,0.699,1.562,1.561v26.021C46.653,45.954,45.954,46.653,45.092,46.653z M43.531,25.837H16.469v17.694h27.062V25.837z
		 M23.648,36.617c0.271-0.32,0.589-0.615,0.954-0.887c0.366-0.271,0.751-0.546,1.157-0.825c0.208-0.145,0.428-0.291,0.663-0.439
		c0.233-0.149,0.448-0.313,0.643-0.494c0.194-0.181,0.356-0.384,0.487-0.608c0.13-0.226,0.196-0.483,0.196-0.771
		c0-0.461-0.132-0.818-0.399-1.076c-0.266-0.258-0.606-0.386-1.022-0.386c-0.279,0-0.516,0.066-0.709,0.196
		c-0.194,0.131-0.351,0.303-0.468,0.515s-0.2,0.446-0.25,0.704c-0.049,0.257-0.074,0.511-0.074,0.764h-1.84
		c-0.019-0.541,0.045-1.044,0.189-1.509s0.361-0.87,0.65-1.218c0.288-0.347,0.651-0.618,1.089-0.812
		c0.438-0.194,0.94-0.29,1.509-0.29c0.433,0,0.846,0.066,1.238,0.201c0.393,0.136,0.738,0.33,1.035,0.583
		c0.298,0.253,0.535,0.563,0.711,0.934s0.264,0.784,0.264,1.244c0,0.479-0.076,0.89-0.23,1.231
		c-0.153,0.344-0.356,0.647-0.608,0.914c-0.253,0.266-0.539,0.507-0.859,0.724c-0.32,0.216-0.643,0.431-0.967,0.643
		s-0.641,0.44-0.947,0.683c-0.307,0.244-0.577,0.527-0.812,0.853h4.479v1.65H22.77c0-0.55,0.079-1.028,0.236-1.434
		C23.164,37.3,23.378,36.938,23.648,36.617z M32.66,37.361c0.279,0.257,0.637,0.386,1.069,0.386c0.253,0,0.479-0.052,0.684-0.156
		c0.202-0.104,0.373-0.238,0.513-0.405c0.141-0.168,0.249-0.361,0.326-0.582c0.076-0.221,0.114-0.448,0.114-0.684
		c0-0.244-0.036-0.474-0.108-0.689c-0.071-0.217-0.181-0.406-0.324-0.568c-0.145-0.163-0.315-0.289-0.514-0.38
		c-0.199-0.089-0.43-0.135-0.69-0.135c-0.344,0-0.622,0.062-0.839,0.183c-0.217,0.122-0.42,0.313-0.609,0.575h-1.732l0.934-5.236
		h5.29v1.583h-3.91l-0.379,2.151l0.027,0.027c0.262-0.263,0.541-0.449,0.838-0.562c0.299-0.113,0.637-0.17,1.016-0.17
		c0.469,0,0.884,0.087,1.244,0.258c0.361,0.171,0.665,0.401,0.914,0.689c0.248,0.289,0.437,0.629,0.568,1.021
		c0.131,0.393,0.195,0.811,0.195,1.252c0,0.487-0.094,0.94-0.283,1.36c-0.19,0.419-0.444,0.782-0.766,1.089
		c-0.319,0.307-0.691,0.544-1.115,0.71c-0.425,0.167-0.876,0.246-1.354,0.237c-0.46,0-0.9-0.062-1.318-0.184
		c-0.42-0.12-0.792-0.308-1.117-0.562c-0.325-0.251-0.584-0.565-0.779-0.94c-0.194-0.373-0.295-0.809-0.305-1.305h1.922
		C32.219,36.759,32.381,37.104,32.66,37.361z M38.327,20.633c-0.862,0-1.562-0.699-1.562-1.562v-4.163
		c0-0.862,0.699-1.562,1.562-1.562s1.561,0.7,1.561,1.562v4.163C39.888,19.934,39.189,20.633,38.327,20.633z M21.674,20.633
		c-0.862,0-1.562-0.699-1.562-1.562v-4.163c0-0.862,0.699-1.562,1.562-1.562s1.561,0.7,1.561,1.562v4.163
		C23.234,19.934,22.536,20.633,21.674,20.633z"/>
</g>
</svg>
